<svg width="320" height="200" viewBox="0 0 320 200" fill="none" xmlns="http://www.w3.org/2000/svg">
  <g stroke="#F97316" stroke-width="3" stroke-linecap="round" stroke-linejoin="round">
    <path d="M60 164h200" opacity="0.6" />
    <path d="M160 40v124" />
    <path d="M92 124c0 18 14 32 32 32s32-14 32-32" opacity="0.8" />
    <path d="M164 124c0 18 14 32 32 32s32-14 32-32" opacity="0.8" />
    <path d="M124 84h72" opacity="0.6" />
    <path d="M108 164v-12" opacity="0.6" />
    <path d="M212 164v-12" opacity="0.6" />
    <path d="M92 124h64" opacity="0.4" />
    <path d="M164 124h64" opacity="0.4" />
    <path d="M160 40c-10 8-18 22-18 36 0 18 10 34 18 42" opacity="0.5" />
    <path d="M160 40c10 8 18 22 18 36 0 18-10 34-18 42" opacity="0.5" />
  </g>
  <g stroke="#FDBA74" stroke-width="2" stroke-linecap="round" stroke-linejoin="round">
    <circle cx="124" cy="124" r="20" opacity="0.8" />
    <circle cx="196" cy="124" r="20" opacity="0.5" />
    <path d="M160 92l-20-20" opacity="0.7" />
    <path d="M160 92l20-20" opacity="0.7" />
    <path d="M160 60h-24" opacity="0.6" />
    <path d="M160 60h24" opacity="0.6" />
    <path d="M76 164c12-8 26-12 40-12" opacity="0.4" />
    <path d="M244 164c-12-8-26-12-40-12" opacity="0.4" />
    <path d="M60 176h200" opacity="0.4" />
    <path d="M160 176c0 8-6 12-12 12h24c-6 0-12-4-12-12Z" opacity="0.5" />
  </g>
</svg>
